<mxfile host="app.diagrams.net" agent="Mozilla/5.0 (X11; Linux x86_64) AppleWebKit/537.36 (KHTML, like Gecko) Chrome/109.0.0.0 Safari/537.36" version="24.7.7">
  <diagram name="Halaman-1" id="v4kKE3ghkxSC4PJq36cw">
    <mxGraphModel dx="1114" dy="510" grid="1" gridSize="10" guides="1" tooltips="1" connect="1" arrows="1" fold="1" page="1" pageScale="1" pageWidth="827" pageHeight="1169" math="0" shadow="0">
      <root>
        <mxCell id="0" />
        <mxCell id="1" parent="0" />
        <mxCell id="2enkI-pQlf27LS5VBOBX-8" value="" style="edgeStyle=orthogonalEdgeStyle;rounded=0;orthogonalLoop=1;jettySize=auto;html=1;" edge="1" parent="1" source="2enkI-pQlf27LS5VBOBX-1" target="2enkI-pQlf27LS5VBOBX-7">
          <mxGeometry relative="1" as="geometry" />
        </mxCell>
        <mxCell id="2enkI-pQlf27LS5VBOBX-1" value="Siswa Melakuan Pelanggaran&amp;nbsp;" style="rounded=0;whiteSpace=wrap;html=1;" vertex="1" parent="1">
          <mxGeometry x="130" y="80" width="100" height="50" as="geometry" />
        </mxCell>
        <mxCell id="2enkI-pQlf27LS5VBOBX-6" value="" style="edgeStyle=orthogonalEdgeStyle;rounded=0;orthogonalLoop=1;jettySize=auto;html=1;" edge="1" parent="1" source="2enkI-pQlf27LS5VBOBX-2" target="2enkI-pQlf27LS5VBOBX-1">
          <mxGeometry relative="1" as="geometry" />
        </mxCell>
        <mxCell id="2enkI-pQlf27LS5VBOBX-2" value="Siswa" style="text;html=1;align=center;verticalAlign=middle;resizable=0;points=[];autosize=1;strokeColor=none;fillColor=none;" vertex="1" parent="1">
          <mxGeometry x="40" y="90" width="60" height="30" as="geometry" />
        </mxCell>
        <mxCell id="2enkI-pQlf27LS5VBOBX-10" value="" style="edgeStyle=orthogonalEdgeStyle;rounded=0;orthogonalLoop=1;jettySize=auto;html=1;" edge="1" parent="1" source="2enkI-pQlf27LS5VBOBX-7" target="2enkI-pQlf27LS5VBOBX-9">
          <mxGeometry relative="1" as="geometry" />
        </mxCell>
        <mxCell id="2enkI-pQlf27LS5VBOBX-7" value="Guru Yang Melihat Meminta Buku Saku Siswa" style="rounded=0;whiteSpace=wrap;html=1;" vertex="1" parent="1">
          <mxGeometry x="280" y="80" width="100" height="50" as="geometry" />
        </mxCell>
        <mxCell id="2enkI-pQlf27LS5VBOBX-12" value="" style="edgeStyle=orthogonalEdgeStyle;rounded=0;orthogonalLoop=1;jettySize=auto;html=1;" edge="1" parent="1" source="2enkI-pQlf27LS5VBOBX-9" target="2enkI-pQlf27LS5VBOBX-11">
          <mxGeometry relative="1" as="geometry" />
        </mxCell>
        <mxCell id="2enkI-pQlf27LS5VBOBX-9" value="Guru Mengisi Buku Siswa Sesuai Pelanggaran Siswa" style="rounded=0;whiteSpace=wrap;html=1;" vertex="1" parent="1">
          <mxGeometry x="420" y="80" width="120" height="50" as="geometry" />
        </mxCell>
        <mxCell id="2enkI-pQlf27LS5VBOBX-11" value="Guru Mengembalikan Kembali Buku Siswa Ke Siswa" style="rounded=0;whiteSpace=wrap;html=1;" vertex="1" parent="1">
          <mxGeometry x="580" y="80" width="120" height="50" as="geometry" />
        </mxCell>
      </root>
    </mxGraphModel>
  </diagram>
</mxfile>
